<svg xmlns="http://www.w3.org/2000/svg" xmlns:xlink="http://www.w3.org/1999/xlink" width="1280" zoomAndPan="magnify" viewBox="0 0 960 599.999999" height="800" preserveAspectRatio="xMidYMid meet" version="1.0"><defs><clipPath id="69161c95a8"><path d="M 132 0 L 839.773438 0 L 839.773438 594 L 132 594 Z M 132 0 " clip-rule="nonzero"/></clipPath></defs><path fill="#59981a" d="M 138.351562 424.507812 Z M 616.289062 271.441406 L 593.472656 304.078125 L 581.234375 263.132812 C 557.964844 190.148438 511.726562 178.058594 511.574219 178.058594 L 433.152344 139.832031 C 433.152344 139.832031 365.914062 147.539062 334.636719 167.632812 C 334.636719 167.632812 334.636719 167.632812 334.484375 167.632812 C 334.484375 167.632812 186.855469 243.488281 154.066406 287.15625 C 121.277344 330.671875 138.351562 424.507812 138.351562 424.507812 C 138.351562 424.507812 256.816406 406.375 287.1875 387.1875 L 271.925781 358.929688 L 302.449219 337.925781 C 290.058594 420.429688 279.03125 501.722656 279.03125 501.722656 C 279.03125 501.722656 395.378906 552.339844 524.871094 492.503906 L 530.613281 467.421875 L 530.917969 471.804688 C 530.917969 471.804688 572.46875 507.917969 610.699219 502.628906 C 648.929688 497.339844 670.6875 414.988281 670.6875 414.988281 Z M 616.289062 271.441406 " fill-opacity="1" fill-rule="nonzero"/><path fill="#81b622" d="M 785.375 128.953125 L 785.375 272.652344 C 785.375 281.714844 778.121094 288.96875 769.054688 288.96875 C 759.988281 288.96875 752.734375 281.714844 752.433594 270.6875 L 752.433594 126.988281 C 757.871094 130.3125 763.3125 131.21875 769.054688 131.21875 C 774.796875 131.21875 780.234375 130.3125 785.375 128.953125 Z M 603.75 142.550781 C 597.101562 142.550781 591.660156 147.992188 591.660156 154.640625 L 591.660156 155.695312 C 591.660156 162.347656 597.101562 167.785156 603.75 167.785156 C 610.398438 167.785156 615.835938 162.347656 615.835938 155.695312 L 615.835938 154.640625 C 615.988281 147.992188 610.546875 142.550781 603.75 142.550781 Z M 635.632812 33.757812 C 630.039062 30.734375 623.542969 29.074219 615.835938 29.074219 C 606.167969 29.074219 594.683594 29.980469 586.824219 36.175781 C 584.105469 38.289062 581.988281 41.464844 581.386719 44.789062 C 580.78125 48.261719 582.140625 52.039062 584.859375 54.15625 C 586.21875 55.0625 587.730469 55.667969 589.242188 55.96875 C 596.191406 57.480469 603.144531 53.703125 610.246094 53.703125 C 613.570312 53.703125 616.441406 54.308594 619.007812 55.515625 C 621.425781 56.726562 623.390625 58.386719 624.75 60.652344 C 626.113281 62.921875 626.867188 65.640625 626.867188 68.8125 C 626.867188 73.949219 625.507812 78.484375 622.789062 82.261719 C 620.066406 86.039062 616.441406 90.269531 611.757812 95.40625 C 609.035156 98.277344 606.621094 101.300781 604.203125 104.472656 C 599.820312 110.367188 597.25 115.804688 598.308594 123.058594 C 598.609375 124.871094 599.0625 126.835938 599.972656 128.195312 C 600.273438 128.648438 600.574219 128.953125 601.027344 129.253906 C 602.386719 130.464844 604.351562 130.765625 606.164062 130.917969 C 610.699219 131.21875 615.535156 130.011719 618.40625 126.535156 C 620.671875 123.816406 621.277344 120.035156 622.484375 116.863281 C 626.714844 105.832031 637.445312 98.128906 644.394531 88.757812 C 646.964844 85.132812 649.078125 81.355469 650.589844 77.425781 C 652.101562 73.496094 652.855469 69.265625 652.855469 64.582031 C 652.855469 57.78125 651.34375 51.738281 648.324219 46.300781 C 645.453125 41.011719 641.222656 36.78125 635.632812 33.757812 Z M 635.632812 33.757812 " fill-opacity="1" fill-rule="nonzero"/><path fill="#6fa401" d="M 529.558594 69.570312 C 530.613281 98.277344 527.894531 130.613281 498.128906 132.125 C 496.316406 144.667969 494.046875 162.042969 498.128906 171.261719 C 512.484375 204.199219 439.800781 178.363281 430.132812 145.421875 L 447.507812 111.425781 C 443.277344 104.324219 440.707031 95.558594 439.046875 85.585938 C 438.292969 80.75 438.292969 76.21875 439.046875 71.835938 C 438.292969 69.871094 437.839844 67.90625 437.988281 66.09375 C 438.441406 60.652344 441.164062 57.328125 445.695312 56.421875 C 454.460938 44.789062 470.175781 37.535156 488.15625 35.570312 C 507.648438 33.757812 528.5 41.765625 529.558594 69.570312 Z M 318.316406 506.253906 C 318.015625 501.117188 317.105469 495.675781 315.898438 489.9375 C 308.644531 458.355469 295.199219 419.671875 282.503906 389.753906 C 258.628906 401.691406 204.082031 412.875 169.480469 419.21875 C 181.417969 444.453125 199.246094 473.464844 225.085938 506.707031 C 202.117188 504.441406 169.632812 503.234375 164.796875 514.113281 C 161.773438 520.761719 169.179688 524.6875 169.179688 524.6875 C 169.179688 524.6875 157.996094 523.78125 156.335938 533.300781 C 155.125 540.707031 164.796875 544.785156 164.796875 544.785156 C 164.796875 544.785156 156.335938 545.238281 154.371094 554.609375 C 152.253906 565.035156 167.363281 566.847656 167.363281 566.847656 C 167.363281 566.847656 155.730469 567.148438 155.578125 578.632812 C 155.277344 599.9375 218.738281 592.683594 275.25 583.164062 C 331.765625 573.796875 318.46875 506.253906 318.46875 506.253906 Z M 593.472656 304.078125 L 595.4375 301.207031 C 594.832031 302.117188 594.230469 303.023438 593.472656 304.078125 Z M 799.578125 202.539062 C 799.578125 195.890625 794.289062 190.601562 787.640625 190.601562 C 794.289062 190.601562 799.578125 185.3125 799.578125 178.664062 C 799.578125 172.015625 794.289062 166.726562 787.640625 166.726562 L 785.523438 166.726562 C 784.316406 163.855469 782.351562 160.835938 779.933594 158.265625 C 779.933594 157.660156 765.578125 142.550781 752.433594 144.363281 C 735.507812 146.632812 736.417969 147.6875 721.304688 154.1875 C 705.441406 160.835938 687.003906 194.984375 687.003906 194.984375 C 687.003906 194.984375 655.273438 225.203125 616.894531 273.253906 L 664.339844 398.667969 C 668.570312 388.09375 673.105469 376.457031 677.941406 363.160156 C 688.820312 333.394531 710.578125 296.222656 719.796875 280.808594 C 725.535156 271.441406 734 264.1875 742.007812 258.898438 C 744.121094 260.863281 746.992188 262.222656 750.167969 262.222656 L 787.488281 262.222656 C 794.136719 262.222656 799.425781 256.9375 799.425781 250.289062 C 799.425781 243.789062 794.136719 238.351562 787.488281 238.351562 C 793.988281 238.351562 799.425781 233.0625 799.425781 226.414062 C 799.425781 219.765625 794.136719 214.476562 787.488281 214.476562 C 794.289062 214.476562 799.578125 209.1875 799.578125 202.539062 Z M 799.578125 202.539062 " fill-opacity="1" fill-rule="nonzero"/><path fill="#9dd241" d="M 829.796875 70.476562 C 829.796875 104.019531 802.597656 131.21875 769.054688 131.21875 C 735.507812 131.21875 708.3125 104.019531 708.3125 70.476562 C 708.3125 36.929688 735.507812 9.730469 769.054688 9.730469 C 802.597656 9.730469 829.796875 36.929688 829.796875 70.476562 Z M 829.796875 70.476562 " fill-opacity="1" fill-rule="nonzero"/><g clip-path="url(#69161c95a8)"><path fill="#3b5704" d="M 839.46875 70.476562 C 839.46875 31.640625 807.886719 0.0625 769.054688 0.0625 C 730.222656 0.0625 698.640625 31.640625 698.640625 70.476562 C 698.640625 103.113281 721.003906 130.765625 751.375 138.621094 C 751.375 140.132812 751.375 141.796875 751.375 143.457031 C 744.425781 143.761719 728.558594 147.539062 716.320312 155.695312 C 702.417969 165.066406 687.609375 191.8125 686.25 194.378906 C 683.53125 196.949219 649.835938 230.191406 617.5 271.140625 L 617.5 270.988281 C 617.347656 270.535156 617.046875 270.382812 616.59375 270.234375 C 616.140625 270.234375 615.835938 270.382812 615.535156 270.6875 L 594.078125 301.359375 L 582.441406 262.675781 C 561.136719 190.449219 505.230469 172.167969 499.035156 170.355469 C 495.40625 161.4375 497.523438 145.269531 499.183594 133.183594 C 529.105469 130.917969 531.824219 98.128906 530.765625 69.570312 C 530.613281 66.394531 530.3125 63.523438 529.707031 60.804688 C 533.335938 60.351562 536.960938 57.480469 539.53125 52.949219 C 543.308594 46.449219 544.96875 36.476562 540.285156 28.621094 C 534.996094 19.855469 530.011719 20.460938 523.210938 21.214844 C 515.808594 22.121094 505.832031 23.179688 488.910156 14.871094 C 482.109375 11.546875 472.894531 12.148438 463.523438 16.683594 C 447.660156 24.390625 435.722656 40.558594 431.492188 60.050781 C 424.390625 92.988281 442.671875 110.972656 445.242188 113.386719 L 432.398438 138.621094 C 425.75 139.378906 364.101562 147.539062 334.484375 166.425781 C 334.332031 166.425781 334.332031 166.578125 334.183594 166.578125 C 333.878906 166.726562 296.707031 185.917969 256.210938 210.09375 C 201.664062 242.582031 167.0625 268.269531 153.3125 286.402344 C 120.523438 329.917969 137.144531 423.753906 137.296875 424.660156 C 137.445312 425.265625 137.898438 425.566406 138.351562 425.566406 C 138.351562 425.566406 138.503906 425.566406 138.503906 425.566406 C 140.015625 425.265625 151.953125 423.449219 168.722656 420.429688 C 181.417969 446.871094 199.398438 475.429688 222.515625 505.347656 C 187.460938 502.023438 167.667969 504.894531 163.585938 513.660156 C 161.621094 518.039062 163.4375 521.515625 165.703125 523.78125 C 161.320312 524.386719 156.03125 526.804688 154.972656 533.300781 C 154.066406 538.894531 158.449219 542.671875 161.472656 544.484375 C 158.601562 545.542969 154.519531 548.109375 153.160156 554.457031 C 152.554688 557.175781 153.011719 559.59375 154.519531 561.710938 C 156.484375 564.429688 159.660156 565.941406 162.378906 566.847656 C 158.75 568.207031 154.519531 571.53125 154.371094 578.785156 C 154.371094 581.957031 155.578125 584.828125 158.148438 586.945312 C 162.074219 590.269531 169.632812 593.742188 190.484375 593.742188 C 207.859375 593.742188 234.304688 591.324219 275.554688 584.527344 C 290.816406 581.957031 302.449219 575.007812 310.15625 563.824219 C 321.640625 547.203125 321.640625 525.746094 320.734375 514.261719 C 341.585938 518.34375 366.972656 522.273438 395.679688 522.273438 C 433.910156 522.273438 478.183594 515.472656 525.328125 493.714844 C 525.628906 493.5625 525.78125 493.261719 525.929688 492.957031 L 531.519531 473.769531 C 539.078125 479.8125 576.398438 508.519531 610.851562 503.6875 C 627.167969 501.417969 642.28125 485.855469 656.03125 457.296875 C 666.152344 436.144531 671.746094 415.441406 671.746094 415.292969 C 671.746094 414.988281 671.746094 414.835938 671.746094 414.535156 L 665.851562 398.820312 C 670.234375 387.789062 674.765625 376.003906 679.300781 363.765625 C 690.179688 333.847656 712.238281 296.375 721.15625 281.566406 C 727.199219 271.742188 736.871094 264.1875 742.308594 260.410156 C 744.574219 262.222656 747.445312 263.433594 750.621094 263.433594 L 751.828125 263.433594 L 751.828125 272.800781 C 751.828125 282.472656 759.6875 290.328125 769.355469 290.328125 C 779.027344 290.328125 786.882812 282.472656 786.882812 272.800781 L 786.882812 263.433594 L 788.09375 263.433594 C 795.347656 263.433594 801.089844 257.539062 801.089844 250.4375 C 801.089844 245.148438 797.914062 240.617188 793.382812 238.5 C 797.914062 236.535156 801.089844 231.851562 801.089844 226.5625 C 801.089844 221.277344 797.914062 216.742188 793.382812 214.628906 C 797.914062 212.664062 801.089844 207.980469 801.089844 202.691406 C 801.089844 197.402344 797.914062 192.867188 793.382812 190.753906 C 797.914062 188.789062 801.089844 184.105469 801.089844 178.816406 C 801.089844 171.5625 795.195312 165.820312 788.09375 165.820312 L 786.882812 165.820312 L 786.882812 138.621094 C 816.953125 130.917969 839.46875 103.265625 839.46875 70.476562 Z M 450.984375 58.539062 C 452.191406 57.179688 453.402344 56.574219 454.761719 56.726562 C 456.574219 56.875 457.785156 57.480469 458.839844 58.6875 C 460.65625 60.804688 461.5625 64.882812 461.109375 70.171875 L 461.109375 70.929688 L 469.570312 75.765625 L 469.117188 73.347656 C 468.964844 72.742188 466.246094 58.539062 481.65625 52.191406 C 489.0625 49.019531 496.316406 51.890625 504.777344 55.0625 C 511.273438 57.632812 518.679688 60.503906 527.441406 60.804688 C 528.046875 63.523438 528.5 66.394531 528.652344 69.570312 C 529.707031 97.523438 526.988281 129.707031 497.824219 130.917969 C 496.617188 130.917969 495.40625 130.917969 494.199219 130.917969 C 493.898438 130.917969 493.445312 130.917969 493.140625 130.917969 C 492.234375 130.917969 491.328125 130.917969 490.421875 130.765625 C 490.121094 130.765625 489.816406 130.765625 489.515625 130.765625 C 488.304688 130.765625 487.25 130.613281 486.039062 130.464844 C 486.039062 130.464844 485.886719 130.464844 485.886719 130.464844 C 484.832031 130.3125 483.621094 130.160156 482.5625 130.011719 C 482.414062 130.011719 482.261719 130.011719 482.109375 130.011719 C 467.90625 127.59375 456.574219 120.492188 449.019531 109.308594 L 448.867188 109.007812 C 450.984375 103.265625 454.308594 92.535156 453.550781 83.621094 L 453.550781 83.015625 L 453.097656 82.714844 C 452.949219 82.5625 449.019531 80.296875 447.660156 73.648438 C 446.601562 69.570312 447.8125 62.164062 450.984375 58.539062 Z M 448.265625 112.332031 C 457.785156 125.324219 472.136719 132.425781 490.269531 133.335938 C 490.875 133.335938 491.480469 133.335938 492.082031 133.335938 C 492.535156 133.335938 492.992188 133.335938 493.445312 133.335938 C 493.746094 133.335938 494.046875 133.335938 494.199219 133.335938 C 494.652344 133.335938 495.105469 133.335938 495.710938 133.335938 C 496.011719 133.335938 496.464844 133.335938 496.769531 133.335938 C 495.105469 145.875 492.992188 162.496094 497.070312 171.714844 C 498.582031 175.1875 499.941406 179.875 497.675781 182.59375 C 496.316406 184.253906 493.746094 185.164062 490.121094 185.3125 C 488.003906 185.3125 485.585938 185.164062 482.714844 184.558594 C 465.035156 181.082031 437.082031 164.613281 431.1875 145.574219 Z M 139.410156 423.148438 C 137.597656 412.570312 124.90625 327.953125 155.125 287.761719 C 168.421875 270.082031 203.78125 243.789062 257.269531 211.90625 C 297.765625 187.730469 334.785156 168.691406 335.238281 168.539062 C 344.457031 162.648438 353.824219 159.777344 362.890625 159.777344 C 367.878906 159.777344 372.710938 160.683594 377.699219 162.34375 C 390.542969 166.878906 402.480469 177.457031 412.152344 192.71875 C 418.347656 202.386719 419.707031 214.777344 416.382812 228.226562 C 409.882812 254.667969 386.613281 282.167969 355.488281 300.152344 L 271.324219 358.023438 C 270.871094 358.324219 270.71875 358.929688 271.019531 359.535156 L 285.828125 386.582031 C 284.621094 387.335938 283.261719 388.09375 281.75 388.847656 C 260.59375 399.273438 214.960938 409.398438 182.625 415.59375 C 182.171875 415.746094 181.71875 415.746094 181.113281 415.894531 C 180.8125 415.894531 180.511719 416.046875 180.207031 416.046875 C 159.960938 419.824219 143.792969 422.394531 139.410156 423.148438 Z M 288.246094 386.582031 L 273.289062 359.382812 L 300.9375 340.34375 C 297.765625 361.347656 294.441406 384.011719 290.964844 408.039062 C 288.699219 401.992188 286.28125 396.101562 283.863281 390.359375 C 285.375 389.605469 286.734375 388.847656 287.945312 388.09375 C 288.398438 387.640625 288.546875 387.035156 288.246094 386.582031 Z M 156.484375 560.347656 C 155.425781 558.6875 154.972656 557.023438 155.425781 554.910156 C 157.089844 546.597656 164.492188 545.996094 164.796875 545.996094 C 165.25 545.996094 195.167969 544.332031 207.859375 545.996094 L 208.164062 543.726562 C 195.621094 542.066406 168.121094 543.578125 164.945312 543.726562 C 163.585938 543.125 156.484375 539.496094 157.390625 533.605469 C 158.601562 526.503906 165.855469 525.898438 168.269531 525.898438 C 168.722656 525.898438 168.875 525.898438 169.027344 525.898438 C 169.027344 525.898438 169.179688 525.898438 169.179688 525.898438 C 169.480469 525.898438 192.902344 524.839844 208.765625 528.46875 L 209.21875 526.199219 C 194.109375 522.726562 172.199219 523.480469 169.328125 523.480469 C 168.121094 522.726562 163.4375 519.550781 165.703125 514.566406 C 169.179688 506.859375 190.03125 504.441406 224.480469 507.765625 C 230.527344 514.113281 237.628906 516.378906 242.160156 517.132812 C 233.09375 521.667969 225.691406 530.128906 220.550781 542.21875 C 216.925781 550.828125 215.414062 558.535156 214.960938 561.105469 C 214.660156 561.105469 214.359375 561.105469 213.902344 561.105469 C 187.007812 561.105469 169.328125 565.035156 167.214844 565.636719 C 166.15625 565.488281 159.355469 564.277344 156.484375 560.347656 Z M 308.191406 562.464844 C 300.789062 573.042969 289.605469 579.691406 275.101562 582.109375 C 232.339844 589.210938 173.863281 597.371094 159.660156 585.128906 C 157.542969 583.316406 156.636719 581.203125 156.636719 578.632812 C 156.789062 568.359375 166.910156 567.90625 167.363281 567.90625 C 167.515625 567.90625 167.515625 567.90625 167.667969 567.90625 C 167.816406 567.90625 186.554688 563.21875 216.019531 563.371094 C 216.625 563.371094 217.078125 562.917969 217.078125 562.3125 C 217.078125 562.011719 222.0625 525.898438 247.296875 517.4375 C 247.902344 517.285156 248.203125 516.679688 248.054688 516.226562 C 247.902344 515.625 247.449219 515.167969 246.84375 515.320312 C 246.695312 515.320312 234.90625 515.773438 225.839844 505.953125 C 202.269531 475.730469 183.835938 446.871094 170.992188 420.125 C 200.152344 414.835938 242.160156 406.226562 269.054688 396.554688 C 269.964844 396.253906 270.871094 395.949219 271.777344 395.496094 C 271.925781 395.496094 271.925781 395.496094 272.078125 395.34375 C 272.984375 395.042969 273.742188 394.742188 274.496094 394.4375 C 274.496094 394.4375 274.648438 394.4375 274.648438 394.4375 C 277.214844 393.382812 279.484375 392.476562 281.75 391.417969 C 281.75 391.417969 281.898438 391.417969 281.898438 391.417969 C 285.222656 399.273438 288.398438 407.433594 291.570312 415.746094 C 291.722656 416.199219 291.871094 416.652344 292.023438 417.105469 C 300.789062 440.375 308.34375 464.398438 313.328125 484.496094 C 313.328125 484.648438 313.480469 484.949219 313.480469 485.101562 C 313.933594 486.914062 314.386719 488.574219 314.691406 490.390625 C 315.898438 495.675781 316.652344 500.816406 317.105469 505.800781 C 317.105469 505.953125 317.105469 506.253906 317.105469 506.40625 C 317.105469 506.40625 317.105469 506.40625 317.105469 506.558594 C 317.105469 506.859375 317.257812 507.011719 317.410156 507.160156 C 318.316406 511.695312 322.699219 541.613281 308.191406 562.464844 Z M 669.476562 414.988281 C 667.816406 420.730469 646.359375 496.585938 610.546875 501.417969 C 575.492188 506.253906 537.113281 475.429688 532.125 471.351562 C 534.542969 461.527344 561.136719 347.144531 524.570312 202.386719 L 522.304688 202.992188 C 560.230469 353.1875 530.011719 470.445312 529.707031 471.5 L 523.816406 491.75 C 441.617188 529.523438 368.480469 521.515625 320.429688 511.84375 C 320.28125 509.730469 319.976562 508.21875 319.828125 507.3125 C 319.675781 506.707031 319.675781 506.253906 319.675781 506.253906 C 319.675781 506.105469 319.523438 505.953125 319.375 505.800781 C 318.921875 500.664062 318.164062 495.375 316.957031 489.9375 C 316.503906 488.273438 316.199219 486.460938 315.746094 484.648438 C 315.746094 484.496094 315.597656 484.195312 315.597656 484.042969 C 310.609375 463.796875 303.054688 439.921875 293.988281 415.746094 C 293.835938 415.292969 293.6875 414.835938 293.535156 414.382812 C 293.234375 413.78125 293.082031 413.175781 292.78125 412.570312 C 296.558594 386.429688 300.183594 361.648438 303.660156 338.984375 L 303.507812 338.984375 L 356.847656 302.265625 C 388.425781 284.132812 412 256.027344 418.648438 228.980469 C 422.125 214.777344 420.613281 201.933594 414.113281 191.660156 C 404.140625 175.945312 391.75 165.066406 378.453125 160.382812 C 371.65625 157.964844 364.703125 157.207031 357.753906 158.113281 C 386.160156 147.6875 421.972656 142.550781 431.039062 141.34375 L 429.226562 145.121094 L 428.921875 145.722656 L 429.074219 146.175781 C 429.226562 146.480469 429.226562 146.78125 429.375 147.085938 C 429.527344 147.386719 429.527344 147.6875 429.679688 147.992188 C 433.605469 158.71875 443.578125 168.390625 454.609375 175.492188 C 455.667969 176.246094 456.875 176.851562 458.085938 177.605469 C 458.386719 177.757812 458.691406 177.910156 458.992188 178.210938 C 459.898438 178.664062 460.804688 179.117188 461.5625 179.570312 C 462.617188 180.175781 463.675781 180.628906 464.582031 181.082031 C 464.886719 181.234375 465.035156 181.234375 465.339844 181.382812 C 466.699219 181.988281 467.90625 182.59375 469.265625 183.199219 C 470.324219 183.652344 471.382812 184.105469 472.289062 184.40625 C 472.742188 184.558594 473.042969 184.707031 473.5 184.859375 C 474.101562 185.011719 474.707031 185.3125 475.3125 185.464844 C 476.21875 185.765625 477.125 186.070312 477.878906 186.21875 C 478.183594 186.21875 478.332031 186.371094 478.636719 186.371094 C 479.84375 186.671875 481.054688 186.976562 482.261719 187.277344 C 483.167969 187.429688 484.074219 187.578125 484.980469 187.730469 C 485.132812 187.730469 485.433594 187.730469 485.585938 187.730469 C 486.492188 187.882812 487.25 187.882812 488.003906 187.882812 C 488.15625 187.882812 488.15625 187.882812 488.304688 187.882812 C 488.757812 187.882812 489.0625 187.882812 489.515625 187.882812 C 489.816406 187.882812 490.121094 187.882812 490.269531 187.882812 C 490.421875 187.882812 490.574219 187.882812 490.875 187.882812 C 491.628906 187.882812 492.234375 187.730469 492.839844 187.730469 C 492.992188 187.730469 492.992188 187.730469 493.140625 187.730469 C 493.59375 187.578125 494.199219 187.578125 494.652344 187.429688 C 494.804688 187.429688 494.953125 187.277344 495.105469 187.277344 C 495.710938 187.125 496.164062 186.824219 496.617188 186.671875 C 496.617188 186.671875 496.769531 186.671875 496.769531 186.523438 C 497.222656 186.371094 497.523438 186.070312 497.976562 185.765625 C 498.128906 185.617188 498.128906 185.617188 498.277344 185.464844 C 498.582031 185.164062 499.035156 184.859375 499.335938 184.40625 C 499.640625 184.105469 499.789062 183.652344 500.09375 183.347656 C 500.09375 183.199219 500.242188 183.046875 500.242188 183.046875 C 500.394531 182.746094 500.546875 182.441406 500.546875 182.140625 C 500.546875 181.988281 500.695312 181.839844 500.695312 181.6875 C 500.847656 181.382812 500.847656 181.082031 500.847656 180.78125 C 500.847656 180.628906 500.847656 180.476562 500.847656 180.175781 C 500.847656 179.875 500.847656 179.570312 500.847656 179.269531 C 500.847656 179.117188 500.847656 178.96875 500.847656 178.664062 C 500.847656 178.363281 500.847656 177.910156 500.695312 177.605469 C 500.695312 177.457031 500.695312 177.304688 500.695312 177.003906 C 500.695312 176.550781 500.546875 176.097656 500.394531 175.644531 C 500.394531 175.492188 500.394531 175.339844 500.242188 175.339844 C 500.09375 174.734375 499.941406 174.132812 499.640625 173.527344 C 510.667969 177.152344 560.078125 197.097656 579.875 263.886719 L 592.113281 304.835938 C 592.265625 305.289062 592.566406 305.589844 593.019531 305.589844 C 593.472656 305.742188 593.925781 305.441406 594.078125 305.136719 L 615.683594 274.3125 L 664.1875 402.296875 Z M 719.039062 280.207031 C 710.125 295.011719 688.0625 332.789062 677.03125 362.859375 C 672.800781 374.34375 668.722656 385.371094 664.644531 395.648438 L 618.40625 273.558594 C 651.648438 231.398438 686.402344 197.25 687.914062 195.738281 L 688.0625 195.4375 C 688.214844 195.136719 703.628906 166.726562 717.527344 157.359375 C 730.070312 148.898438 746.539062 145.421875 752.433594 145.421875 C 758.628906 145.421875 762.40625 146.632812 774.039062 154.640625 C 778.574219 157.660156 782.351562 162.195312 784.316406 166.578125 L 784.316406 166.726562 C 784.46875 167.03125 784.617188 167.179688 784.617188 167.484375 C 784.617188 167.632812 784.769531 167.785156 784.769531 167.9375 C 784.921875 168.238281 785.070312 168.539062 785.070312 168.84375 C 785.222656 169.144531 785.222656 169.449219 785.375 169.597656 C 785.375 169.75 785.523438 169.902344 785.523438 170.050781 C 785.675781 170.355469 785.675781 170.808594 785.675781 171.109375 C 785.675781 171.109375 785.675781 171.261719 785.675781 171.261719 C 785.675781 171.714844 785.828125 172.015625 785.828125 172.46875 C 785.828125 172.46875 785.828125 172.46875 785.828125 172.621094 C 785.828125 172.921875 785.828125 173.226562 785.828125 173.679688 C 785.828125 173.679688 785.828125 173.828125 785.828125 173.828125 C 785.828125 174.132812 785.828125 174.433594 785.675781 174.585938 C 785.675781 174.734375 785.675781 174.734375 785.675781 174.886719 C 785.675781 175.039062 785.523438 175.339844 785.523438 175.492188 C 785.523438 175.644531 785.375 175.792969 785.375 175.945312 C 785.375 176.097656 785.222656 176.246094 785.070312 176.398438 C 784.921875 176.550781 784.921875 176.699219 784.769531 176.851562 C 784.617188 177.003906 784.617188 177.003906 784.46875 177.152344 C 784.316406 177.304688 784.164062 177.457031 784.164062 177.457031 C 784.011719 177.605469 784.011719 177.605469 783.863281 177.757812 C 783.710938 177.910156 783.558594 178.058594 783.257812 178.210938 C 783.105469 178.363281 782.957031 178.363281 782.804688 178.511719 C 782.652344 178.664062 782.351562 178.664062 782.199219 178.816406 C 782.050781 178.816406 781.898438 178.96875 781.746094 178.96875 C 781.597656 178.96875 781.292969 179.117188 781.144531 179.117188 C 780.992188 179.117188 780.839844 179.117188 780.6875 179.269531 C 780.386719 179.269531 780.234375 179.421875 779.933594 179.421875 C 779.78125 179.421875 779.632812 179.421875 779.632812 179.421875 C 779.179688 179.421875 778.726562 179.570312 778.273438 179.570312 C 764.519531 179.875 753.492188 166.273438 753.492188 166.125 C 753.1875 165.972656 752.886719 165.820312 752.585938 165.820312 C 751.980469 165.820312 751.527344 166.273438 751.527344 166.726562 C 751.375 167.9375 749.410156 178.664062 742.914062 188.183594 C 742.914062 188.183594 739.136719 194.378906 728.257812 200.421875 L 729.316406 202.386719 C 734 199.820312 737.324219 197.25 739.742188 195.136719 C 738.230469 197.25 737.324219 199.820312 737.324219 202.691406 C 737.324219 207.980469 740.496094 212.511719 745.027344 214.628906 C 740.496094 216.589844 737.324219 221.277344 737.324219 226.5625 C 737.324219 231.851562 740.496094 236.386719 745.027344 238.5 C 740.496094 240.464844 737.324219 245.148438 737.324219 250.4375 C 737.324219 253.613281 738.53125 256.632812 740.496094 258.898438 C 734.753906 262.675781 725.082031 270.234375 719.039062 280.207031 Z M 753.640625 143.308594 C 753.640625 141.796875 753.640625 140.4375 753.640625 139.074219 C 758.628906 140.132812 763.765625 140.738281 769.054688 140.738281 C 774.34375 140.738281 779.328125 140.132812 784.316406 139.074219 L 784.316406 161.890625 C 782.050781 158.566406 779.027344 155.242188 775.402344 152.828125 C 763.917969 145.121094 759.6875 143.609375 753.640625 143.308594 Z M 745.027344 190.601562 C 744.273438 190.902344 743.519531 191.355469 742.761719 191.8125 C 743.367188 191.054688 743.820312 190.601562 744.121094 190.148438 C 744.574219 190.300781 744.878906 190.601562 745.027344 190.601562 Z M 784.316406 272.5 C 784.316406 280.808594 777.515625 287.761719 769.054688 287.761719 C 760.742188 287.761719 753.792969 280.960938 753.792969 272.5 L 753.792969 263.132812 L 784.164062 263.132812 L 784.164062 272.5 Z M 798.519531 250.136719 C 798.519531 256.027344 793.683594 260.863281 787.792969 260.863281 L 750.46875 260.863281 C 744.574219 260.863281 739.742188 256.027344 739.742188 250.136719 C 739.742188 244.242188 744.574219 239.40625 750.46875 239.40625 L 787.792969 239.40625 C 793.683594 239.40625 798.519531 244.242188 798.519531 250.136719 Z M 798.519531 226.414062 C 798.519531 232.304688 793.683594 237.140625 787.792969 237.140625 L 750.46875 237.140625 C 744.574219 237.140625 739.742188 232.304688 739.742188 226.414062 C 739.742188 220.519531 744.574219 215.683594 750.46875 215.683594 L 787.792969 215.683594 C 793.683594 215.535156 798.519531 220.367188 798.519531 226.414062 Z M 798.519531 202.539062 C 798.519531 208.433594 793.683594 213.265625 787.792969 213.265625 L 750.46875 213.265625 C 744.574219 213.265625 739.742188 208.433594 739.742188 202.539062 C 739.742188 196.644531 744.574219 191.8125 750.46875 191.8125 L 787.792969 191.8125 C 793.683594 191.8125 798.519531 196.644531 798.519531 202.539062 Z M 786.734375 178.058594 C 786.734375 177.910156 786.882812 177.910156 786.882812 177.757812 C 786.882812 177.757812 786.882812 177.605469 787.035156 177.605469 C 787.1875 177.304688 787.339844 177.152344 787.488281 176.851562 C 787.488281 176.851562 787.488281 176.699219 787.640625 176.699219 C 787.792969 176.398438 787.941406 175.945312 787.941406 175.644531 C 787.941406 175.644531 787.941406 175.492188 787.941406 175.492188 C 788.09375 175.1875 788.09375 174.734375 788.09375 174.433594 C 788.09375 174.28125 788.09375 173.980469 788.09375 173.828125 C 788.09375 173.679688 788.09375 173.375 788.09375 173.226562 C 788.09375 172.921875 788.09375 172.621094 788.09375 172.320312 C 788.09375 172.167969 788.09375 172.015625 788.09375 171.863281 C 788.09375 171.410156 787.941406 171.109375 787.941406 170.65625 C 787.941406 170.65625 787.941406 170.65625 787.941406 170.503906 C 787.792969 169.597656 787.488281 168.691406 787.1875 167.632812 L 787.640625 167.632812 C 793.53125 167.632812 798.367188 172.46875 798.367188 178.363281 C 798.367188 184.253906 793.53125 189.089844 787.640625 189.089844 L 750.316406 189.089844 C 748.65625 189.089844 746.992188 188.636719 745.484375 187.882812 C 750.316406 180.476562 752.433594 172.46875 753.339844 168.691406 C 755.910156 171.5625 761.652344 177.003906 769.207031 179.570312 C 769.507812 179.722656 769.660156 179.722656 769.960938 179.875 C 770.414062 180.023438 770.714844 180.175781 771.167969 180.175781 C 771.625 180.328125 772.078125 180.328125 772.378906 180.476562 C 772.679688 180.476562 772.984375 180.628906 773.285156 180.628906 C 774.039062 180.78125 774.796875 180.929688 775.703125 180.929688 C 776.308594 180.929688 777.0625 181.082031 777.820312 181.082031 C 777.96875 181.082031 778.273438 181.082031 778.421875 181.082031 C 778.421875 181.082031 778.421875 181.082031 778.574219 181.082031 C 779.027344 181.082031 779.480469 181.082031 779.933594 180.929688 C 780.085938 180.929688 780.234375 180.929688 780.386719 180.929688 C 780.839844 180.929688 781.292969 180.78125 781.597656 180.628906 C 781.597656 180.628906 781.597656 180.628906 781.746094 180.628906 C 782.199219 180.476562 782.503906 180.328125 782.804688 180.328125 C 782.957031 180.328125 782.957031 180.175781 783.105469 180.175781 C 783.410156 180.023438 783.558594 179.875 783.863281 179.875 C 783.863281 179.875 784.011719 179.722656 784.164062 179.722656 C 784.46875 179.570312 784.617188 179.421875 784.921875 179.269531 C 785.070312 179.117188 785.222656 179.117188 785.222656 178.96875 C 785.375 178.816406 785.375 178.816406 785.523438 178.664062 C 785.976562 178.96875 786.429688 178.511719 786.734375 178.058594 Z M 769.054688 129.707031 C 736.417969 129.707031 709.824219 103.113281 709.824219 70.476562 C 709.824219 37.835938 736.417969 11.242188 769.054688 11.242188 C 801.691406 11.242188 828.285156 37.835938 828.285156 70.476562 C 828.285156 103.113281 801.691406 129.707031 769.054688 129.707031 Z M 499.035156 78.9375 C 500.546875 78.9375 501.753906 80.597656 501.601562 82.414062 C 501.601562 84.375 500.394531 85.886719 498.882812 85.886719 C 497.371094 85.886719 496.164062 84.226562 496.316406 82.414062 C 496.464844 80.597656 497.523438 78.9375 499.035156 78.9375 Z M 518.222656 82.714844 C 518.222656 84.679688 517.015625 86.191406 515.503906 86.191406 C 513.992188 86.191406 512.785156 84.527344 512.9375 82.714844 C 513.085938 80.902344 514.144531 79.238281 515.65625 79.238281 C 517.167969 79.238281 518.222656 80.902344 518.222656 82.714844 Z M 506.4375 99.941406 C 505.53125 99.941406 504.625 99.789062 504.171875 99.789062 L 504.472656 97.523438 C 506.136719 97.824219 507.949219 97.675781 508.25 97.371094 C 508.25 97.371094 508.25 97.371094 508.25 97.21875 C 507.496094 94.351562 506.589844 84.375 506.4375 83.921875 L 508.703125 83.773438 C 508.703125 83.921875 509.613281 94.046875 510.367188 96.617188 C 510.667969 97.523438 510.367188 98.277344 509.914062 98.882812 C 509.308594 99.789062 507.796875 99.941406 506.4375 99.941406 Z M 509.613281 112.933594 L 508.101562 114.597656 C 505.230469 112.179688 499.789062 108.402344 497.070312 108.703125 L 496.769531 106.4375 C 501.300781 105.984375 508.855469 112.332031 509.613281 112.933594 Z M 489.96875 76.519531 L 488.757812 74.707031 C 489.515625 74.253906 495.558594 70.023438 499.640625 70.171875 L 499.640625 72.441406 C 496.769531 72.289062 491.78125 75.3125 489.96875 76.519531 Z M 512.632812 72.589844 L 512.484375 70.324219 C 516.410156 70.023438 522.757812 73.949219 523.511719 74.402344 L 522.304688 76.367188 C 520.640625 75.3125 515.351562 72.441406 512.632812 72.589844 Z M 783.863281 47.960938 L 785.375 49.625 L 732.335938 98.128906 L 730.824219 96.464844 Z M 783.410156 69.871094 L 784.921875 71.53125 L 754.246094 99.636719 L 752.734375 97.976562 Z M 805.773438 49.472656 L 807.285156 51.132812 L 795.949219 61.558594 L 794.441406 59.898438 Z M 805.773438 49.472656 " fill-opacity="1" fill-rule="nonzero"/></g></svg>